<svg width="24" height="24" viewBox="0 0 24 24" fill="none" xmlns="http://www.w3.org/2000/svg">
<mask id="mask0_640_1358" style="mask-type:alpha" maskUnits="userSpaceOnUse" x="0" y="0" width="24" height="24">
<rect width="24" height="24" fill="#D9D9D9"/>
</mask>
<g mask="url(#mask0_640_1358)">
<path d="M19.3845 20.5C17.6115 20.5 15.7833 20.0526 13.9 19.1578C12.0167 18.2628 10.2599 16.9986 8.62975 15.3652C6.99975 13.7319 5.73725 11.9753 4.84225 10.0953C3.94742 8.21508 3.5 6.3885 3.5 4.6155C3.5 4.29683 3.60533 4.03125 3.816 3.81875C4.02667 3.60625 4.28992 3.5 4.60575 3.5H7.459C7.71967 3.5 7.93975 3.58492 8.11925 3.75475C8.29875 3.92475 8.425 4.14433 8.498 4.4135L9.09425 7.093C9.12892 7.34517 9.12058 7.57183 9.06925 7.773C9.01792 7.97433 8.9205 8.14358 8.777 8.28075L6.41725 10.5788C6.86342 11.3443 7.33458 12.0533 7.83075 12.7058C8.32692 13.3583 8.8635 13.9711 9.4405 14.5442C10.0635 15.1839 10.7263 15.7679 11.4288 16.2963C12.1314 16.8244 12.8834 17.3045 13.6848 17.7365L15.9538 15.402C16.1204 15.2187 16.307 15.0953 16.5135 15.0317C16.72 14.9682 16.9353 14.9532 17.1595 14.9865L19.5865 15.5213C19.8557 15.5814 20.0753 15.7169 20.2453 15.9277C20.4151 16.1386 20.5 16.3774 20.5 16.6443V19.3943C20.5 19.7101 20.3937 19.9733 20.1812 20.184C19.9688 20.3947 19.7032 20.5 19.3845 20.5ZM5.85 9.55L7.9135 7.548C7.93917 7.5225 7.95675 7.48725 7.96625 7.44225C7.97592 7.39742 7.97758 7.35575 7.97125 7.31725L7.425 4.7885C7.41867 4.73717 7.39783 4.69867 7.3625 4.673C7.32733 4.6475 7.28408 4.63475 7.23275 4.63475H4.76925C4.73075 4.63475 4.69867 4.6475 4.673 4.673C4.6475 4.69867 4.63475 4.73075 4.63475 4.76925C4.64875 5.46292 4.75642 6.202 4.95775 6.9865C5.15908 7.77117 5.4565 8.62567 5.85 9.55ZM14.7578 18.2788C15.4411 18.6148 16.1892 18.8763 17.002 19.0635C17.8148 19.2507 18.5577 19.3545 19.2308 19.375C19.2692 19.375 19.3013 19.3622 19.327 19.3365C19.3525 19.3108 19.3652 19.2787 19.3652 19.2402V16.7865C19.3652 16.7352 19.3525 16.6919 19.327 16.6568C19.3013 16.6214 19.2628 16.6006 19.2115 16.5943L16.9443 16.127C16.9058 16.1205 16.8721 16.1221 16.8432 16.1318C16.8144 16.1414 16.784 16.159 16.752 16.1845L14.7578 18.2788Z" fill="#5EF480"/>
</g>
</svg>
