<svg width="24" height="24" viewBox="0 0 24 24" fill="none" xmlns="http://www.w3.org/2000/svg">
<mask id="mask0_624_10483" style="mask-type:alpha" maskUnits="userSpaceOnUse" x="0" y="0" width="24" height="24">
<rect width="24" height="24" fill="#D9D9D9"/>
</mask>
<g mask="url(#mask0_624_10483)">
<path d="M7.95 20.5H4.94225C4.55008 20.5 4.21167 20.3577 3.927 20.073C3.64233 19.7883 3.5 19.4499 3.5 19.0577V12C3.5 10.8205 3.72308 9.71542 4.16925 8.68475C4.61542 7.65392 5.22183 6.75517 5.9885 5.9885C6.75517 5.22183 7.65392 4.61542 8.68475 4.16925C9.71542 3.72308 10.8205 3.5 12 3.5C13.1795 3.5 14.2846 3.72308 15.3152 4.16925C16.3461 4.61542 17.2448 5.22183 18.0115 5.9885C18.7782 6.75517 19.3846 7.65392 19.8307 8.68475C20.2769 9.71542 20.5 10.8205 20.5 12V19.0577C20.5 19.4499 20.3577 19.7883 20.073 20.073C19.7883 20.3577 19.4499 20.5 19.0577 20.5H16.05V13.8598H19.3652V12C19.3652 9.94817 18.6508 8.20767 17.2218 6.7785C15.7928 5.34933 14.0525 4.63475 12.001 4.63475C9.9495 4.63475 8.20892 5.34933 6.77925 6.7785C5.34958 8.20767 4.63475 9.94817 4.63475 12V13.8598H7.95V20.5ZM6.8155 14.9943H4.63475V19.0577C4.63475 19.1346 4.66675 19.2051 4.73075 19.2693C4.79492 19.3333 4.86542 19.3652 4.94225 19.3652H6.8155V14.9943ZM17.1845 14.9943V19.3652H19.0577C19.1346 19.3652 19.2051 19.3333 19.2693 19.2693C19.3333 19.2051 19.3652 19.1346 19.3652 19.0577V14.9943H17.1845Z" fill="#5EF480"/>
</g>
</svg>
