<svg width="24" height="24" viewBox="0 0 24 24" fill="none" xmlns="http://www.w3.org/2000/svg">
<mask id="mask0_640_1353" style="mask-type:alpha" maskUnits="userSpaceOnUse" x="0" y="0" width="24" height="24">
<rect width="24" height="24" fill="#D9D9D9"/>
</mask>
<g mask="url(#mask0_640_1353)">
<path d="M12.0031 11.7308C12.4482 11.7308 12.8282 11.5723 13.1428 11.2552C13.4577 10.9383 13.6151 10.5572 13.6151 10.112C13.6151 9.66683 13.4565 9.28683 13.1393 8.972C12.8223 8.65733 12.4412 8.5 11.9961 8.5C11.5509 8.5 11.171 8.6585 10.8563 8.9755C10.5415 9.2925 10.3841 9.67358 10.3841 10.1188C10.3841 10.5639 10.5427 10.9439 10.8598 11.2587C11.1768 11.5734 11.5579 11.7308 12.0031 11.7308ZM11.9996 19.677C13.8791 18.041 15.365 16.3772 16.4573 14.6855C17.5497 12.9938 18.0958 11.5307 18.0958 10.2962C18.0958 8.46675 17.5167 6.95675 16.3583 5.76625C15.2 4.57592 13.7471 3.98075 11.9996 3.98075C10.2521 3.98075 8.79915 4.57592 7.64082 5.76625C6.48249 6.95675 5.90332 8.46675 5.90332 10.2962C5.90332 11.5307 6.44949 12.9938 7.54182 14.6855C8.63415 16.3772 10.1201 18.041 11.9996 19.677ZM11.9996 21.0193C9.64957 18.9411 7.8794 17.0029 6.68907 15.2048C5.49857 13.4067 4.90332 11.7706 4.90332 10.2962C4.90332 8.18075 5.59215 6.43583 6.96982 5.0615C8.34732 3.68717 10.0239 3 11.9996 3C13.9752 3 15.6518 3.68717 17.0293 5.0615C18.407 6.43583 19.0958 8.18075 19.0958 10.2962C19.0958 11.7706 18.5006 13.4067 17.3101 15.2048C16.1197 17.0029 14.3496 18.9411 11.9996 21.0193Z" fill="#5EF480"/>
</g>
</svg>
