<svg width="163" height="32" viewBox="0 0 163 32" fill="none" xmlns="http://www.w3.org/2000/svg">
<g clip-path="url(#clip0_624_9438)">
<g clip-path="url(#clip1_624_9438)">
<path d="M96.1869 6.83219C91.8144 6.83219 88.5591 10.0037 88.5591 14.6327C88.5591 19.2617 91.8157 22.4056 96.1869 22.4056C100.558 22.4056 103.787 19.2629 103.787 14.6327C103.787 10.0024 100.531 6.83219 96.1869 6.83219ZM96.1869 19.7183C93.5309 19.7183 91.7869 17.4326 91.7869 14.6327C91.7869 11.8328 93.5309 9.51826 96.1869 9.51826C98.843 9.51826 100.558 11.8027 100.558 14.6327C100.558 17.4626 98.8167 19.7183 96.1869 19.7183ZM113.787 7.23129C112.557 11.1447 111.216 15.1456 110.129 18.6874H110.101C108.872 14.8304 107.643 11.1159 106.387 7.23129H102.844L108.244 22.0041H111.902C113.702 17.0598 115.472 12.1756 117.301 7.23129H113.787ZM128.042 7.23254V9.88858H128.013C127.498 8.51865 125.841 6.86097 123.27 6.86097C119.212 6.86097 116.412 9.91861 116.412 14.5739C116.412 19.2292 119.241 22.3744 123.27 22.3744C125.841 22.3744 127.44 20.7467 127.956 19.4606H127.984V22.0028H131.414V7.23254H128.042ZM123.956 19.7171C121.155 19.7171 119.7 17.4889 119.7 14.5751C119.7 11.6614 121.215 9.51826 123.956 9.51826C126.697 9.51826 128.242 11.9754 128.242 14.5751C128.242 17.1749 126.872 19.7171 123.956 19.7171ZM83.9589 17.1086C83.3546 16.0627 82.6602 14.7928 81.9296 13.4291L75.12 1.60142H70.815V22.0003H74.2154V6.58823C74.8522 7.76299 75.6817 9.24177 76.5299 10.8882L83.0531 22.0016H87.358V1.60267H83.9589V17.1086ZM18.7638 22.0016L11.3048 1.60267H6.98983L-0.494141 22.0016H3.10522L5.07567 16.4605H13.1627L15.1331 22.0016H18.7625H18.7638ZM6.04902 13.6881L9.07913 4.74664H9.16421L12.1943 13.6881H6.05027H6.04902ZM28.3621 14.0872C28.3621 17.7741 26.8195 19.5432 24.7915 19.5432C22.7635 19.5432 21.9628 18.0569 21.9628 15.7712V7.22878H18.6787V16.4568C18.6787 19.8572 20.1374 22.4006 23.9933 22.4006C26.1501 22.4006 27.4663 21.2309 28.2795 19.6858V22.0016H31.6799V7.22878H28.3671V14.0872H28.3621ZM39.5617 22.3719C42.1327 22.3719 43.7328 20.7442 44.2483 19.4581H44.2771V22.0003H47.7063V1.60267H44.3346V9.88733H44.3058C43.7904 8.5174 42.134 6.85971 39.563 6.85971C35.5057 6.85971 32.7046 9.91736 32.7046 14.5726C32.7046 19.2279 35.5332 22.3731 39.563 22.3731V22.3706L39.5617 22.3719ZM40.2473 9.51451C43.1048 9.51451 44.531 11.9716 44.531 14.5714C44.531 17.1711 43.1611 19.7133 40.2473 19.7133C37.3336 19.7133 35.9911 17.4851 35.9911 14.5714C35.9911 11.6576 37.5062 9.51451 40.2473 9.51451ZM52.9596 7.23129H49.6467V22.0041H52.9596V7.23129ZM61.8185 22.4031C66.161 22.4031 69.4188 19.2604 69.4188 14.6302C69.4188 9.99993 66.1622 6.82969 61.8185 6.82969C57.4747 6.82969 54.1906 10.0012 54.1906 14.6302C54.1906 19.2592 57.4472 22.4031 61.8185 22.4031ZM61.8185 9.51701C64.4457 9.51701 66.1898 11.8015 66.1898 14.6302C66.1898 17.4589 64.4482 19.7158 61.8185 19.7158C59.1887 19.7158 57.4172 17.4314 57.4172 14.6302C57.4172 11.829 59.1587 9.51701 61.8185 9.51701ZM51.3044 5.3434C52.4666 5.3434 53.4087 4.40134 53.4087 3.23908C53.4087 2.07683 52.4666 1.13477 51.3044 1.13477C50.1421 1.13477 49.1988 2.07683 49.1988 3.23908C49.1988 4.40134 50.1409 5.3434 51.3044 5.3434Z" fill="white"/>
<path d="M149.52 0C142.447 0 136.713 5.73371 136.713 12.8086C136.713 17.4901 139.226 21.5837 142.976 23.8181C142.325 22.4231 142.749 20.6904 143.918 19.6708C145.138 18.6036 147.305 18.4309 149.059 19.1428C149.21 19.2041 149.456 19.383 149.39 19.6683C149.323 19.9522 149.102 20.4164 149.03 20.579C148.935 20.798 148.713 20.8906 148.459 20.808C147.82 20.6003 146.939 20.4389 146.096 20.8468C145.144 21.2559 144.824 22.8573 145.997 23.4603C146.803 23.8469 147.802 23.6917 148.639 23.4528C148.832 23.3977 149.141 23.4165 149.256 23.7005C149.35 23.9407 149.481 24.1796 149.553 24.4286C149.623 24.6763 149.545 24.9553 149.345 25.0742C148.994 25.2781 148.578 25.432 148.135 25.5408C148.589 25.5909 149.051 25.6159 149.519 25.6159C156.593 25.6159 162.326 19.8834 162.326 12.8086C162.326 5.73371 156.594 0 149.52 0ZM149.827 4.33625L148.93 15.5584C148.835 16.6219 147.65 17.1236 146.409 17.1236C144.724 17.1236 143.633 16.752 143.519 15.5835L142.734 6.23414C142.488 3.40044 148.178 2.88124 148.178 2.88124C148.554 2.84621 148.85 2.84621 149.085 2.91252C149.718 3.09017 149.896 3.62438 149.827 4.335" fill="white"/>
<path d="M72.9823 25.6147L70.6729 31.8101H71.5248L72.2067 29.996H74.7952L75.4682 31.8101H76.3202L74.0107 25.6147H72.9811H72.9823ZM72.4519 29.3179L73.4815 26.3516H73.5116L74.55 29.3179H72.4519Z" fill="white"/>
<path d="M82.2789 28.6273C82.1213 28.5647 81.7872 28.4609 81.2793 28.3133C81.0954 28.2595 80.9403 28.2107 80.8126 28.1669C80.685 28.1231 80.5574 28.068 80.4273 28.0042C80.2972 27.9392 80.1946 27.8716 80.1183 27.8003C80.042 27.7302 79.9794 27.6439 79.9294 27.5426C79.8806 27.4412 79.8556 27.3274 79.8556 27.2035C79.8556 26.8482 79.9719 26.5843 80.2046 26.4154C80.4373 26.2465 80.7401 26.1614 81.1141 26.1614C81.5157 26.1614 81.8198 26.2565 82.0287 26.4479C82.2376 26.6381 82.3715 26.9333 82.4315 27.3312H83.266C83.2185 26.7206 83.0058 26.2577 82.628 25.9412C82.2501 25.6247 81.7459 25.467 81.1129 25.467C80.8276 25.467 80.5599 25.5046 80.3097 25.5809C80.0595 25.6572 79.8368 25.7686 79.6429 25.9137C79.4477 26.0588 79.2951 26.2477 79.185 26.4792C79.0749 26.7106 79.0223 26.9721 79.0286 27.2636C79.0311 27.3849 79.0436 27.4975 79.0661 27.6026C79.165 28.0318 79.4577 28.3708 79.9431 28.6198C80.1721 28.7386 80.5649 28.88 81.1217 29.0439C81.1392 29.0489 81.1579 29.0551 81.1792 29.0601C81.2005 29.0664 81.2167 29.0702 81.2305 29.0752C81.243 29.0789 81.2605 29.0839 81.283 29.0902C81.4557 29.1415 81.5921 29.184 81.6921 29.2178C81.7922 29.2516 81.9036 29.2979 82.0262 29.3579C82.1488 29.4167 82.2439 29.4805 82.3102 29.5468C82.3765 29.6131 82.4328 29.6995 82.4778 29.8058C82.5229 29.9121 82.5454 30.0335 82.5454 30.1724C82.5454 30.5314 82.4165 30.8029 82.1601 30.9881C81.9036 31.1732 81.5796 31.2658 81.1892 31.2658C80.7226 31.2658 80.3497 31.1495 80.0682 30.918C79.7868 30.6866 79.6379 30.345 79.6216 29.8921H78.7959C78.7984 30.2374 78.8622 30.5427 78.9848 30.8092C79.1074 31.0756 79.2776 31.2921 79.4928 31.4572C79.7092 31.6224 79.9594 31.7475 80.2446 31.8325C80.5299 31.9176 80.8452 31.9602 81.1892 31.9602C81.4157 31.9602 81.6321 31.9376 81.8423 31.8938C82.0512 31.8501 82.2489 31.78 82.4353 31.6837C82.6217 31.5873 82.7831 31.4697 82.9207 31.3321C83.0583 31.1932 83.1672 31.0231 83.2472 30.8192C83.3273 30.6152 83.3673 30.3913 83.3673 30.1461C83.3673 29.8583 83.3161 29.6094 83.2147 29.4004C83.0533 29.0752 82.7418 28.8187 82.2777 28.6285L82.2789 28.6273Z" fill="white"/>
<path d="M87.4732 27.535C87.1279 27.326 86.735 27.2209 86.2909 27.2209C85.8468 27.2209 85.4539 27.326 85.1086 27.535C84.7633 27.7439 84.5006 28.0266 84.3179 28.382C84.1353 28.7373 84.0439 29.1351 84.0439 29.573C84.0439 30.0109 84.1353 30.4075 84.3179 30.7615C84.5006 31.1156 84.7633 31.3971 85.1086 31.6047C85.4539 31.8124 85.8468 31.9163 86.2909 31.9163C86.735 31.9163 87.1279 31.8124 87.4732 31.6047C87.8172 31.3971 88.0812 31.1156 88.2638 30.7615C88.4465 30.4075 88.5366 30.0109 88.5366 29.573C88.5366 29.1351 88.4453 28.7385 88.2638 28.382C88.0812 28.0266 87.8185 27.7439 87.4732 27.535ZM87.3456 30.7653C87.0716 31.0918 86.72 31.2544 86.2909 31.2544C85.8618 31.2544 85.5102 31.0918 85.2362 30.7653C84.9622 30.4387 84.8259 30.0421 84.8259 29.573C84.8259 29.1038 84.9622 28.6972 85.2362 28.3694C85.5102 28.0417 85.8618 27.8778 86.2909 27.8778C86.72 27.8778 87.0716 28.0417 87.3456 28.3694C87.6195 28.6972 87.7559 29.0988 87.7559 29.573C87.7559 30.0471 87.6183 30.44 87.3456 30.7653Z" fill="white"/>
<path d="M92.7523 27.7227C92.6272 27.5663 92.4583 27.4437 92.2444 27.3536C92.0292 27.2648 91.7802 27.2197 91.495 27.2197C91.1697 27.2197 90.897 27.306 90.6755 27.4799C90.4541 27.6539 90.2777 27.8815 90.1476 28.1643V27.3211H89.3682V31.8087H90.1476V29.6055C90.1476 29.0488 90.2664 28.6222 90.5029 28.3232C90.7406 28.0254 91.0359 27.8765 91.3887 27.8765C91.6989 27.8765 91.9341 27.9641 92.0943 28.1393C92.2544 28.3144 92.3332 28.5934 92.3332 28.9775V31.8074H93.1177V28.9012C93.1177 28.6635 93.0876 28.447 93.0288 28.2506C92.9688 28.0542 92.8774 27.8778 92.7536 27.7214L92.7523 27.7227Z" fill="white"/>
<path d="M97.342 27.535C96.9967 27.326 96.6039 27.2209 96.1598 27.2209C95.7156 27.2209 95.3228 27.326 94.9775 27.535C94.6322 27.7439 94.3695 28.0266 94.1868 28.382C94.0041 28.7373 93.9141 29.1351 93.9141 29.573C93.9141 30.0109 94.0054 30.4075 94.1868 30.7615C94.3695 31.1156 94.6322 31.3971 94.9775 31.6047C95.3228 31.8124 95.7156 31.9163 96.1598 31.9163C96.6039 31.9163 96.9967 31.8124 97.342 31.6047C97.6861 31.3971 97.9501 31.1156 98.1327 30.7615C98.3154 30.4075 98.4054 30.0109 98.4054 29.573C98.4054 29.1351 98.3141 28.7385 98.1327 28.382C97.9501 28.0266 97.6873 27.7439 97.342 27.535ZM97.2144 30.7653C96.9404 31.0918 96.5889 31.2544 96.1598 31.2544C95.7306 31.2544 95.3791 31.0918 95.1051 30.7653C94.8311 30.4387 94.6947 30.0421 94.6947 29.573C94.6947 29.1038 94.8311 28.6972 95.1051 28.3694C95.3791 28.0417 95.7306 27.8778 96.1598 27.8778C96.5889 27.8778 96.9404 28.0417 97.2144 28.3694C97.4884 28.6972 97.6248 29.0988 97.6248 29.573C97.6248 30.0471 97.4872 30.44 97.2144 30.7653Z" fill="white"/>
<path d="M100.769 31.0217H100.761C100.619 30.6126 100.408 29.9958 100.128 29.1739C99.8461 28.3519 99.6347 27.7351 99.4946 27.3223H98.6426C98.829 27.8189 99.1105 28.5671 99.4858 29.5655C99.8611 30.5638 100.143 31.312 100.329 31.8086H101.185C101.371 31.312 101.651 30.5638 102.026 29.5655C102.4 28.5671 102.681 27.8189 102.871 27.3223H102.019L100.769 31.0217Z" fill="white"/>
<path d="M106.897 28.9712C106.897 28.8048 106.888 28.6534 106.869 28.517C106.85 28.3819 106.805 28.228 106.734 28.0579C106.663 27.8877 106.565 27.7439 106.441 27.6275C106.319 27.5112 106.141 27.4136 105.909 27.3335C105.678 27.2534 105.405 27.2122 105.091 27.2122C104.811 27.2122 104.558 27.2572 104.331 27.3473C104.103 27.4374 103.919 27.5562 103.778 27.7026C103.636 27.849 103.524 28.0053 103.441 28.1705C103.357 28.3356 103.303 28.5045 103.278 28.6772H104.058C104.112 28.432 104.234 28.2355 104.424 28.0879C104.615 27.9415 104.846 27.8677 105.117 27.8677C105.431 27.8677 105.675 27.9265 105.853 28.0454C106.03 28.1642 106.118 28.3194 106.118 28.512C106.118 28.7047 106.061 28.8386 105.947 28.9311C105.833 29.0237 105.628 29.0975 105.335 29.1513C105.279 29.1626 105.183 29.1789 105.047 29.1976C104.912 29.2176 104.793 29.2339 104.692 29.2489C104.591 29.2627 104.467 29.2877 104.321 29.3227C104.175 29.3578 104.049 29.3965 103.941 29.4366C103.834 29.4779 103.723 29.5329 103.607 29.6042C103.491 29.6755 103.396 29.7544 103.321 29.8419C103.246 29.9295 103.185 30.0371 103.137 30.1635C103.089 30.2911 103.064 30.4299 103.064 30.5826C103.064 30.749 103.097 30.9091 103.162 31.063C103.227 31.2169 103.322 31.3582 103.446 31.4871C103.57 31.616 103.735 31.7186 103.94 31.7961C104.145 31.8737 104.377 31.9125 104.637 31.9125C104.871 31.9125 105.082 31.8812 105.269 31.8186C105.455 31.7561 105.603 31.6748 105.714 31.5734C105.824 31.4721 105.911 31.3733 105.973 31.2769C106.036 31.1806 106.082 31.0818 106.113 30.9804H106.122V31.1543C106.122 31.4446 106.127 31.6623 106.138 31.8061H106.969C106.924 31.5184 106.902 31.2144 106.902 30.8953V28.9674L106.897 28.9712ZM106.02 30.4349C105.943 30.6401 105.839 30.8028 105.708 30.9229C105.577 31.043 105.431 31.133 105.274 31.1918C105.116 31.2507 104.947 31.2807 104.77 31.2807C104.493 31.2807 104.268 31.2169 104.094 31.0905C103.92 30.9629 103.834 30.7953 103.834 30.5863C103.834 30.3774 103.92 30.2072 104.092 30.0947C104.264 29.9821 104.526 29.8945 104.876 29.8319C105.184 29.7781 105.429 29.7106 105.612 29.628C105.794 29.5467 105.917 29.4666 105.981 29.389C106.045 29.3115 106.093 29.2164 106.127 29.1025L106.136 29.7256C106.136 29.9946 106.098 30.231 106.022 30.4349H106.02Z" fill="white"/>
<path d="M112.264 27.2211C111.883 27.2211 111.554 27.325 111.275 27.5302C110.997 27.7366 110.81 27.9705 110.718 28.2333H110.709V25.6147H109.93V31.8101H110.709V30.9156H110.718C110.812 31.1758 110.997 31.4073 111.277 31.6099C111.557 31.8139 111.885 31.9152 112.264 31.9152C112.891 31.9152 113.389 31.6975 113.758 31.2621C114.127 30.8268 114.311 30.2575 114.311 29.5544C114.311 28.8513 114.127 28.2896 113.758 27.8617C113.389 27.4338 112.891 27.2199 112.264 27.2199V27.2211ZM113.162 30.778C112.917 31.0895 112.566 31.2459 112.108 31.2459C111.874 31.2459 111.664 31.1996 111.479 31.1082C111.293 31.0169 111.144 30.8906 111.032 30.7304C110.919 30.5703 110.833 30.3914 110.774 30.1925C110.714 29.9935 110.685 29.7808 110.685 29.5544C110.685 29.2516 110.734 28.9777 110.834 28.7299C110.933 28.4835 111.093 28.2783 111.313 28.1182C111.534 27.9568 111.799 27.8767 112.11 27.8767C112.559 27.8767 112.91 28.0318 113.159 28.3409C113.409 28.6499 113.534 29.0552 113.534 29.5544C113.534 30.0536 113.411 30.4652 113.165 30.7767L113.162 30.778Z" fill="white"/>
<path d="M115.921 28.2257V27.3236H115.142V31.8113H115.921V29.6932C115.921 29.4843 115.935 29.2966 115.961 29.1302C115.987 28.9638 116.027 28.8249 116.08 28.7123C116.132 28.601 116.189 28.5059 116.249 28.4283C116.31 28.3508 116.383 28.2882 116.469 28.2419C116.555 28.1956 116.637 28.1606 116.713 28.1356C116.789 28.1118 116.876 28.0931 116.971 28.078C117.087 28.0618 117.182 28.053 117.258 28.053V27.3074C116.911 27.3074 116.629 27.3799 116.411 27.5238C116.194 27.6677 116.03 27.9016 115.92 28.2269L115.921 28.2257Z" fill="white"/>
<path d="M121.391 28.9712C121.391 28.8048 121.382 28.6534 121.363 28.517C121.345 28.3819 121.3 28.228 121.228 28.0579C121.156 27.8865 121.059 27.7439 120.936 27.6275C120.813 27.5112 120.635 27.4136 120.404 27.3335C120.172 27.2534 119.9 27.2122 119.586 27.2122C119.305 27.2122 119.053 27.2572 118.825 27.3473C118.597 27.4374 118.413 27.5562 118.272 27.7026C118.131 27.849 118.018 28.0053 117.935 28.1705C117.852 28.3356 117.798 28.5045 117.773 28.6772H118.552C118.606 28.432 118.729 28.2355 118.919 28.0879C119.109 27.9415 119.34 27.8677 119.612 27.8677C119.926 27.8677 120.17 27.9265 120.346 28.0454C120.523 28.1642 120.612 28.3194 120.612 28.512C120.612 28.7047 120.554 28.8386 120.44 28.9311C120.326 29.0237 120.121 29.0975 119.828 29.1513C119.772 29.1626 119.676 29.1789 119.541 29.1976C119.404 29.2176 119.287 29.2339 119.185 29.2489C119.084 29.2627 118.96 29.2877 118.814 29.3227C118.669 29.3578 118.542 29.3965 118.435 29.4366C118.327 29.4779 118.216 29.5329 118.101 29.6042C117.984 29.6755 117.889 29.7544 117.814 29.8419C117.739 29.9295 117.678 30.0371 117.63 30.1635C117.583 30.2911 117.558 30.4299 117.558 30.5826C117.558 30.749 117.59 30.9091 117.655 31.063C117.72 31.2169 117.815 31.3582 117.939 31.4871C118.063 31.616 118.228 31.7186 118.433 31.7961C118.639 31.8737 118.87 31.9125 119.13 31.9125C119.364 31.9125 119.576 31.8812 119.762 31.8186C119.948 31.7561 120.097 31.6748 120.207 31.5734C120.318 31.4721 120.404 31.3733 120.466 31.2769C120.529 31.1806 120.575 31.0818 120.607 30.9804H120.615V31.1543C120.615 31.4446 120.622 31.6623 120.632 31.8061H121.462C121.417 31.5184 121.395 31.2144 121.395 30.8953V28.9674L121.391 28.9712ZM120.514 30.4349C120.438 30.6401 120.334 30.8028 120.202 30.9229C120.071 31.043 119.926 31.133 119.768 31.1918C119.611 31.2507 119.442 31.2807 119.264 31.2807C118.988 31.2807 118.762 31.2169 118.589 31.0905C118.415 30.9629 118.328 30.7953 118.328 30.5863C118.328 30.3774 118.415 30.2072 118.586 30.0947C118.759 29.9821 119.02 29.8945 119.37 29.8319C119.678 29.7781 119.923 29.7106 120.106 29.628C120.289 29.5467 120.411 29.4666 120.475 29.389C120.539 29.3115 120.588 29.2164 120.622 29.1025L120.63 29.7256C120.63 29.9946 120.591 30.231 120.516 30.4349H120.514Z" fill="white"/>
<path d="M125.871 27.7227C125.745 27.5663 125.576 27.4437 125.363 27.3536C125.147 27.2648 124.898 27.2197 124.613 27.2197C124.288 27.2197 124.015 27.306 123.794 27.4799C123.572 27.6539 123.396 27.8815 123.266 28.1643V27.3211H122.486V31.8087H123.266V29.6055C123.266 29.0488 123.385 28.6222 123.621 28.3232C123.859 28.0254 124.154 27.8765 124.507 27.8765C124.817 27.8765 125.052 27.9641 125.212 28.1393C125.373 28.3144 125.451 28.5934 125.451 28.9775V31.8074H126.236V28.9012C126.236 28.6635 126.206 28.447 126.147 28.2506C126.087 28.0542 125.996 27.8778 125.872 27.7214L125.871 27.7227Z" fill="white"/>
<path d="M130.629 25.6147V28.2333H130.621C130.528 27.9705 130.343 27.7366 130.065 27.5302C129.789 27.3237 129.46 27.2211 129.078 27.2211C128.451 27.2211 127.953 27.4351 127.584 27.8629C127.215 28.2908 127.031 28.855 127.031 29.5557C127.031 30.2563 127.215 30.828 127.584 31.2634C127.953 31.6988 128.451 31.9164 129.078 31.9164C129.457 31.9164 129.785 31.8151 130.063 31.6112C130.34 31.4073 130.527 31.1758 130.619 30.9168H130.628V31.8114H131.413V25.616H130.628L130.629 25.6147ZM130.569 30.1937C130.509 30.3926 130.424 30.5728 130.31 30.7317C130.198 30.8918 130.048 31.0169 129.864 31.1095C129.679 31.2008 129.468 31.2471 129.234 31.2471C128.777 31.2471 128.425 31.0907 128.18 30.7792C127.935 30.4664 127.811 30.0598 127.811 29.5569C127.811 29.054 127.936 28.6524 128.186 28.3434C128.436 28.0343 128.785 27.8792 129.234 27.8792C129.545 27.8792 129.811 27.9593 130.031 28.1207C130.252 28.2821 130.412 28.486 130.511 28.7324C130.609 28.9802 130.659 29.2541 130.659 29.5569C130.659 29.7833 130.629 29.996 130.571 30.195L130.569 30.1937Z" fill="white"/>
</g>
</g>
<defs>
<clipPath id="clip0_624_9438">
<rect width="162.901" height="32" fill="white"/>
</clipPath>
<clipPath id="clip1_624_9438">
<rect width="162.822" height="31.9576" fill="white" transform="translate(-0.494141)"/>
</clipPath>
</defs>
</svg>
