<svg width="24" height="27" viewBox="0 0 24 27" fill="none" xmlns="http://www.w3.org/2000/svg">
<path d="M18.4018 22.6332C18.4018 19.0982 15.5349 16.2327 11.9998 16.2327C8.46481 16.2327 5.59934 19.0982 5.59934 22.6332M4.60624 16.2312C3.87976 14.9745 3.46484 13.517 3.46484 11.9637C3.46335 7.24984 7.28597 3.42871 11.9983 3.42871C16.7107 3.42871 20.5348 7.24984 20.5348 11.9637C20.5348 13.5185 20.1184 14.976 19.3934 16.2312M16.2673 11.9637C16.2673 9.60603 14.356 7.69621 11.9998 7.69621C9.64366 7.69621 7.73234 9.60752 7.73234 11.9637C7.73234 14.3199 9.64366 16.2312 11.9998 16.2312C14.356 16.2312 16.2673 14.3199 16.2673 11.9637Z" stroke="#5EF480" stroke-width="1.18542" stroke-linecap="round" stroke-linejoin="round"/>
</svg>
