<svg width="24" height="18" viewBox="0 0 24 18" fill="none" xmlns="http://www.w3.org/2000/svg">
<g clip-path="url(#clip0_624_8876)">
<path d="M11.8875 17.9999C11.7749 17.9999 11.6624 17.958 11.578 17.902L5.89449 13.5664H0.506448C0.225088 13.5664 0 13.3426 0 13.0629V4.95098C0 4.67126 0.225088 4.44748 0.506448 4.44748H5.89449L11.578 0.111817C11.7327 -7.14371e-05 11.9437 -0.0280435 12.1125 0.0558726C12.2814 0.139789 12.3939 0.321607 12.3939 0.503425V17.4964C12.3939 17.6922 12.2814 17.8601 12.1125 17.944C12.0422 17.972 11.9719 17.9999 11.8875 17.9999ZM6.56975 12.8111L11.3669 16.4755V1.5244L6.56975 5.18874V6.6293C6.56975 6.90902 6.34467 7.1328 6.06331 7.1328C5.78195 7.1328 5.55686 6.90902 5.55686 6.6293V5.44049H1.0129V12.5454H5.55686V9.28664C5.55686 9.00692 5.78195 8.78315 6.06331 8.78315C6.34467 8.78315 6.56975 9.00692 6.56975 9.28664V12.8111ZM20.9472 17.4685C20.8488 17.4685 20.7644 17.4405 20.68 17.3845C20.4408 17.2307 20.3705 16.923 20.5252 16.6852C22.0164 14.3496 23.0012 12.5314 23.0012 8.85308C23.0012 5.17475 22.0164 3.31461 20.5252 1.02091C20.3705 0.783145 20.4408 0.475453 20.68 0.321607C20.9191 0.167761 21.2286 0.237691 21.3834 0.475453C22.9308 2.83909 24.0141 4.8251 24.0141 8.85308C24.0141 12.881 22.9308 14.8111 21.3834 17.2167C21.2849 17.3706 21.1161 17.4545 20.9472 17.4545V17.4685ZM17.8804 15.8461C17.796 15.8461 17.6975 15.8181 17.6131 15.7762C17.374 15.6363 17.2896 15.3286 17.4443 15.0769L17.585 14.8531C18.6823 13.0349 19.4138 11.8321 19.4138 8.86706C19.4138 5.90203 18.6964 4.65727 17.5006 2.7272L17.8804 2.37755L18.3587 2.19573C19.5545 4.1258 20.4267 5.5244 20.4267 8.86706C20.4267 12.2097 19.5545 13.5524 18.4431 15.3845L18.3025 15.6083C18.204 15.7622 18.0352 15.8461 17.8664 15.8461H17.8804ZM14.8136 14.1817C14.7292 14.1817 14.6589 14.1678 14.5885 14.1258C14.3494 13.9859 14.2368 13.7062 14.3775 13.4685C15.2497 11.93 15.8406 10.8531 15.8406 8.85308C15.8406 6.85308 15.306 5.84608 14.3775 4.25168C14.2368 4.01391 14.3212 3.70622 14.5604 3.56636C14.7995 3.4265 15.109 3.51042 15.2497 3.74818C16.1079 5.2307 16.8535 6.50343 16.8535 8.86706C16.8535 11.2307 16.1641 12.3636 15.2919 13.916C15.1934 14.0838 14.9965 14.1957 14.8136 14.1957V14.1817Z" fill="#5EF480"/>
</g>
<defs>
<clipPath id="clip0_624_8876">
<rect width="24" height="18" fill="white"/>
</clipPath>
</defs>
</svg>
